<svg width="48" height="48" viewBox="0 0 48 48" fill="none" xmlns="http://www.w3.org/2000/svg">
<path d="M5.02449 24.0113C5.02449 22.9655 5.74792 22.2027 6.79277 22.2027L33.2502 22.2027L37.5291 22.3638L30.9402 16.357L26.4402 11.7764C26.1188 11.455 25.9576 10.9733 25.9576 10.5113C25.9576 9.50669 26.7205 8.76269 27.7062 8.76269C28.1879 8.76269 28.6096 8.9444 29.0116 9.32583L42.3711 22.6638C42.7722 23.0461 42.9736 23.5081 42.9736 24.0095C42.9736 24.4921 42.7722 24.9541 42.3711 25.3364L29.0116 38.6753C28.6088 39.0567 28.1879 39.2375 27.7053 39.2375C26.7213 39.2375 25.9576 38.4944 25.9576 37.5104C25.9576 37.0278 26.1188 36.5461 26.4402 36.2247L30.9402 31.6647L37.5488 25.6373L33.2502 25.7984L6.79277 25.7984C5.74792 25.7984 5.02449 25.0561 5.02449 24.0113Z" fill="#000911"/>
</svg>
