<svg width="24" height="24" viewBox="0 0 24 24" fill="none" xmlns="http://www.w3.org/2000/svg">
<path d="M6.78839 2.26714L8.21125 1.83857C8.85896 1.64316 9.55564 1.69014 10.1712 1.97074C10.7868 2.25133 11.2793 2.74637 11.5567 3.36343L12.4421 5.33314C12.6807 5.86377 12.7472 6.45578 12.6322 7.0261C12.5172 7.59641 12.2265 8.11642 11.801 8.51314L10.2538 9.95571C10.2353 9.9741 10.2197 9.9952 10.2075 10.0183C10.0455 10.3491 10.2915 11.2329 11.0621 12.5683C11.9313 14.0734 12.6024 14.6683 12.9135 14.5766L14.9441 13.9551C15.5002 13.7853 16.0955 13.7938 16.6466 13.9793C17.1976 14.1648 17.6768 14.5181 18.017 14.9897L19.2753 16.7323C19.6703 17.2794 19.8533 17.9514 19.7902 18.6233C19.7272 19.2952 19.4223 19.9213 18.9324 20.3854L17.8498 21.4097C17.4734 21.7663 17.0162 22.0265 16.5174 22.1682C16.0186 22.3098 15.4929 22.3287 14.9853 22.2231C11.9707 21.5957 9.26982 19.1683 6.85954 14.994C4.44839 10.8171 3.69668 7.26 4.66525 4.33457C4.82739 3.8448 5.10503 3.40126 5.47472 3.04141C5.84441 2.68157 6.29443 2.416 6.78839 2.26714ZM7.16125 3.498C6.86486 3.58727 6.59431 3.74658 6.37247 3.96246C6.15062 4.17833 5.984 4.44444 5.88668 4.73829C5.05182 7.25914 5.72811 10.4614 7.97382 14.3511C10.2178 18.2383 12.6504 20.424 15.2484 20.964C15.553 21.0272 15.8684 21.0158 16.1677 20.9307C16.4669 20.8457 16.7412 20.6894 16.967 20.4754L18.0487 19.452C18.3126 19.2022 18.4768 18.865 18.5109 18.5032C18.5449 18.1414 18.4465 17.7795 18.2338 17.4849L16.9755 15.7414C16.7924 15.4876 16.5344 15.2973 16.2378 15.1974C15.9411 15.0975 15.6207 15.0929 15.3213 15.1843L13.2855 15.8074C12.1593 16.1426 11.0998 15.204 9.94954 13.2103C8.97497 11.5234 8.63725 10.3046 9.05382 9.45343C9.13497 9.28771 9.24297 9.14171 9.37782 9.01543L10.925 7.57286C11.1542 7.35924 11.3108 7.0792 11.3727 6.77205C11.4347 6.4649 11.3989 6.14606 11.2704 5.86028L10.3841 3.89143C10.2348 3.55908 9.96954 3.29246 9.63798 3.14135C9.30643 2.99024 8.93121 2.96498 8.58239 3.07029L7.16125 3.498Z" fill="#000911"/>
</svg>
